<svg xmlns="http://www.w3.org/2000/svg" viewBox="0 0 560 360" role="img" aria-labelledby="title desc">
  <title id="title">Tool comparison decision illustration</title>
  <desc id="desc">A stylized comparison board with selected decision cards.</desc>
  <defs>
    <linearGradient id="bg" x1="0" x2="1" y1="0" y2="1">
      <stop offset="0" stop-color="#eef2ff"/>
      <stop offset="1" stop-color="#bae6fd"/>
    </linearGradient>
    <linearGradient id="panel" x1="0" x2="1" y1="0" y2="1">
      <stop offset="0" stop-color="#ffffff"/>
      <stop offset="1" stop-color="#f8fafc"/>
    </linearGradient>
  </defs>
  <rect width="560" height="360" rx="42" fill="url(#bg)"/>
  <circle cx="442" cy="92" r="90" fill="#6366f1" opacity=".13"/>
  <circle cx="118" cy="286" r="90" fill="#0ea5e9" opacity=".15"/>
  <rect x="72" y="58" width="416" height="244" rx="34" fill="url(#panel)" stroke="#c7d2fe" stroke-width="4"/>
  <rect x="112" y="98" width="142" height="156" rx="24" fill="#eef2ff" stroke="#818cf8" stroke-width="4"/>
  <rect x="306" y="98" width="142" height="156" rx="24" fill="#f0f9ff" stroke="#38bdf8" stroke-width="4"/>
  <path d="M264 176h32" stroke="#111827" stroke-width="8" stroke-linecap="round"/>
  <path d="M278 160l18 16-18 16" fill="none" stroke="#111827" stroke-width="8" stroke-linecap="round" stroke-linejoin="round"/>
  <g fill="none" stroke-linecap="round" stroke-width="7">
    <path d="M138 142h84" stroke="#4f46e5"/>
    <path d="M138 176h62" stroke="#818cf8"/>
    <path d="M138 210h92" stroke="#818cf8"/>
    <path d="M332 142h84" stroke="#0284c7"/>
    <path d="M332 176h54" stroke="#38bdf8"/>
  </g>
  <circle cx="390" cy="216" r="24" fill="#111827"/>
  <path d="M379 216l8 8 17-20" fill="none" stroke="#a7f3d0" stroke-width="7" stroke-linecap="round" stroke-linejoin="round"/>
</svg>
