<svg xmlns="http://www.w3.org/2000/svg" viewBox="0 0 560 360" role="img" aria-labelledby="title desc">
  <title id="title">Content gap finder illustration</title>
  <desc id="desc">Two competing content pages with missing section blocks highlighted.</desc>
  <defs>
    <linearGradient id="bg" x1="0" x2="1" y1="0" y2="1">
      <stop offset="0" stop-color="#fff7ed"/>
      <stop offset="1" stop-color="#fef3c7"/>
    </linearGradient>
  </defs>
  <rect width="560" height="360" rx="42" fill="url(#bg)"/>
  <circle cx="120" cy="285" r="90" fill="#fb923c" opacity=".16"/>
  <rect x="74" y="62" width="184" height="236" rx="28" fill="#fff" stroke="#fed7aa" stroke-width="4"/>
  <rect x="302" y="62" width="184" height="236" rx="28" fill="#fff" stroke="#fbbf24" stroke-width="4"/>
  <g stroke-linecap="round" stroke-width="9">
    <path d="M112 116h98" stroke="#9a3412"/>
    <path d="M112 154h116" stroke="#fdba74"/>
    <path d="M112 192h82" stroke="#fdba74"/>
    <path d="M112 230h110" stroke="#fdba74"/>
    <path d="M340 116h98" stroke="#9a3412"/>
    <path d="M340 154h116" stroke="#f59e0b"/>
    <path d="M340 192h82" stroke="#f59e0b"/>
    <path d="M340 230h110" stroke="#f59e0b"/>
  </g>
  <rect x="276" y="144" width="32" height="74" rx="16" fill="#111827"/>
  <path d="M289 174h-28M289 190h-38" stroke="#111827" stroke-width="8" stroke-linecap="round"/>
  <circle cx="292" cy="258" r="26" fill="#10b981"/>
  <path d="M280 258l8 8 17-21" fill="none" stroke="#fff" stroke-width="7" stroke-linecap="round" stroke-linejoin="round"/>
</svg>
